<svg xmlns="http://www.w3.org/2000/svg" width="32" height="32" fill="none"><g clip-path="url(#a)"><path fill="#FDF9EC" d="M0 0h32v32H0z"/><path fill="#F889E7" d="M47.625 26.898a3.225 3.225 0 0 0 .336-2.008 3.24 3.24 0 0 0-3.03-2.718l-1.94-.112 1.331-1.409c.538-.569.85-1.312.878-2.09a3.228 3.228 0 0 0-.577-1.953 3.272 3.272 0 0 0-3.913-1.147l-1.802.736.583-1.843.003-.008a3.202 3.202 0 0 0-.13-2.258 3.258 3.258 0 0 0-3.375-1.902 3.263 3.263 0 0 0-2.023 1.048l-1.301 1.438-.282-1.915a3.22 3.22 0 0 0-1.104-1.983 3.289 3.289 0 0 0-1.898-.767 3.297 3.297 0 0 0-1.984.51 3.229 3.229 0 0 0-1.358 1.815l-.542 1.85-1.089-1.6a3.251 3.251 0 0 0-1.861-1.314 3.268 3.268 0 0 0-3.61 1.433 3.203 3.203 0 0 0-.434 2.221l.323 1.904-1.681-.973a3.276 3.276 0 0 0-4.039.604 3.207 3.207 0 0 0-.26 4.043l1.125 1.578-1.946-.153a3.249 3.249 0 0 0-3.37 2.285c-.2.66-.18 1.38.057 2.029a3.233 3.233 0 0 0 1.48 1.723l1.703.938-1.817.698a3.224 3.224 0 0 0-2.04 3.507 3.237 3.237 0 0 0 3.025 2.722l1.945.113-1.331 1.41a3.212 3.212 0 0 0-.307 4.032 3.272 3.272 0 0 0 3.91 1.16l1.812-.74-.583 1.844a3.202 3.202 0 0 0 .123 2.258 3.256 3.256 0 0 0 3.38 1.91 3.263 3.263 0 0 0 2.022-1.048l1.301-1.438.282 1.914c.114.77.504 1.473 1.1 1.98A3.289 3.289 0 0 0 26.83 48c.623 0 1.244-.18 1.768-.515a3.226 3.226 0 0 0 1.36-1.812l.544-1.856 1.09 1.602.006.009a3.252 3.252 0 0 0 1.86 1.305 3.268 3.268 0 0 0 3.607-1.44 3.2 3.2 0 0 0 .43-2.215l-.322-1.904 1.683.974a3.275 3.275 0 0 0 4.036-.605 3.205 3.205 0 0 0 .259-4.046l-1.123-1.576 1.938.153a3.25 3.25 0 0 0 3.376-2.28 3.233 3.233 0 0 0-.053-2.03 3.233 3.233 0 0 0-1.481-1.726l-1.704-.938 1.817-.698a3.244 3.244 0 0 0 1.703-1.504Z"/></g><defs><clipPath id="a"><path fill="#fff" d="M0 0h32v32H0z"/></clipPath></defs></svg>